<svg
  width="200"
  height="200"
  viewBox="0 0 200 200"
  fill="none"
  xmlns="http://www.w3.org/2000/svg"
>
  <rect width="200" height="200" rx="20" fill="#EB9C35" />
  <g filter="url(#filter0_i_439_335)">
    <path
      d="M157.231 146.277C157.093 143.03 156.955 139.783 156.816 136.536C154.91 136.482 153.004 136.428 151.098 136.373C116.787 135.395 82.4762 134.416 48.1654 133.438C46.2592 133.383 44.353 133.329 42.4469 133.275C42.8157 141.934 43.1844 150.592 43.5532 159.251C45.4478 159.035 47.3425 158.819 49.2371 158.602C83.3405 154.71 117.444 150.818 151.547 146.926C153.442 146.71 155.337 146.494 157.231 146.277Z"
      fill="#F6E7A0"
    />
    <path
      d="M42.7916 159.265C51.4077 158.331 60.0239 157.396 68.64 156.462C68.3003 154.585 67.9606 152.709 67.6208 150.833C61.5058 117.057 55.3907 83.2811 49.2757 49.5054C48.936 47.629 48.5963 45.7526 48.2565 43.8761C45.0255 44.2266 41.7944 44.577 38.5634 44.9274C38.6338 46.8331 38.7043 48.7387 38.7748 50.6443C40.0433 84.9457 41.3117 119.247 42.5802 153.548C42.6507 155.454 42.7211 157.36 42.7916 159.265Z"
      fill="#F6E7A0"
    />
  </g>
  <defs>
    <filter
      id="filter0_i_439_335"
      x="38.5634"
      y="43.8761"
      width="118.668"
      height="119.389"
      filterUnits="userSpaceOnUse"
      color-interpolation-filters="sRGB"
    >
      <feFlood flood-opacity="0" result="BackgroundImageFix" />
      <feBlend
        mode="normal"
        in="SourceGraphic"
        in2="BackgroundImageFix"
        result="shape"
      />
      <feColorMatrix
        in="SourceAlpha"
        type="matrix"
        values="0 0 0 0 0 0 0 0 0 0 0 0 0 0 0 0 0 0 127 0"
        result="hardAlpha"
      />
      <feOffset dy="4" />
      <feGaussianBlur stdDeviation="2" />
      <feComposite in2="hardAlpha" operator="arithmetic" k2="-1" k3="1" />
      <feColorMatrix
        type="matrix"
        values="0 0 0 0 0 0 0 0 0 0 0 0 0 0 0 0 0 0 0.25 0"
      />
      <feBlend mode="normal" in2="shape" result="effect1_innerShadow_439_335" />
    </filter>
  </defs>
</svg>
